<svg xmlns="http://www.w3.org/2000/svg" width="66" height="61.883" viewBox="0 0 66 61.883"><defs><style>.a{fill:rgba(0,0,0,0.75);}</style></defs><g transform="translate(0 -68.066)"><g transform="translate(0 68.066)"><path class="a" d="M53.957,110.324a1.233,1.233,0,0,0-.337-.945l-2.3-2.417V102.9c.243-.2.483-.406.715-.624A14.493,14.493,0,0,0,56.6,91.746v-3.24a14.274,14.274,0,0,0,1.32-6V69.3a1.235,1.235,0,0,0-1.235-1.235H38.2a11.81,11.81,0,0,0-11.8,11.8V82.5a14.273,14.273,0,0,0,1.32,6v2.788a15.088,15.088,0,0,0,5.281,11.516v4.152l-2.3,2.417a1.233,1.233,0,0,0-.337.945l-7.6,2.763a6.474,6.474,0,0,0-1.527.8l-1.193-.6c3.551-1.546,4.676-3.72,4.73-3.828a1.234,1.234,0,0,0,0-1.1c-.89-1.78-1-5.044-1.085-7.666-.029-.873-.056-1.7-.108-2.432C23.17,92.337,18.667,87.87,13.117,87.87S3.064,92.337,2.644,98.26c-.052.734-.08,1.559-.108,2.432-.087,2.622-.195,5.885-1.085,7.665a1.234,1.234,0,0,0,0,1.1c.054.108,1.177,2.278,4.735,3.825l-3.314,1.657A5.169,5.169,0,0,0,0,119.591v9.123a1.235,1.235,0,0,0,2.47,0v-9.123a2.711,2.711,0,0,1,1.507-2.438L8.1,115.09l1.435,1.364a5.193,5.193,0,0,0,7.158,0l1.435-1.364,1.345.673a6.5,6.5,0,0,0-.993,3.448v9.5a1.235,1.235,0,1,0,2.47,0v-9.5a4.059,4.059,0,0,1,2.664-3.8l8.01-2.913,3.334,5a2.546,2.546,0,0,0,1.874,1.125q.128.013.255.013a2.545,2.545,0,0,0,1.8-.748l2.034-2.034v12.862a1.235,1.235,0,1,0,2.47,0V115.852l2.034,2.034a2.544,2.544,0,0,0,1.8.749q.127,0,.255-.013a2.546,2.546,0,0,0,1.874-1.125l3.335-5,8.01,2.913a4.059,4.059,0,0,1,2.664,3.8v9.5a1.235,1.235,0,0,0,2.47,0c0-4.23.352-7.18,0-9.5-.506-3.347-.352-2.587-1.826-4.518S53.957,110.324,53.957,110.324Zm-46.035,1a8.877,8.877,0,0,1-3.963-2.544,13.61,13.61,0,0,0,.7-2.957,9.208,9.208,0,0,0,3.259,4.021ZM15,114.664a2.725,2.725,0,0,1-3.756,0l-1.148-1.091a2.555,2.555,0,0,0,.3-1.206v-1.316a9.182,9.182,0,0,0,5.452,0v1.315a2.555,2.555,0,0,0,.3,1.206ZM13.118,109a6.694,6.694,0,0,1-6.687-6.687,1.227,1.227,0,0,0-1.437-1.217c0-.106.007-.213.011-.318.027-.849.054-1.651.1-2.339a9.168,9.168,0,0,1,2.5-5.757,7.672,7.672,0,0,1,11.028,0,9.168,9.168,0,0,1,2.5,5.757c.049.688.075,1.49.1,2.338l.007.22a11.1,11.1,0,0,0-6.1-4.457,15.5,15.5,0,0,0-4.7-.744,1.235,1.235,0,0,0-.855.377L7.36,98.481a1.235,1.235,0,1,0,1.778,1.714l1.854-1.923c1.6.078,6.733.675,8.73,5.074A6.671,6.671,0,0,1,13.118,109Zm5.195,2.331v-1.473a9.134,9.134,0,0,0,3.26-4.025,13.594,13.594,0,0,0,.7,2.95A8.92,8.92,0,0,1,18.313,111.326ZM30.2,91.293V88.23a1.235,1.235,0,0,0-.123-.537,11.845,11.845,0,0,1-1.2-5.189V79.863A9.338,9.338,0,0,1,38.2,70.536H55.452V82.5a11.844,11.844,0,0,1-1.2,5.189,1.235,1.235,0,0,0-.123.537v3.516a11.855,11.855,0,0,1-3.785,8.734,12.286,12.286,0,0,1-.948.8l-.021.015a11.873,11.873,0,0,1-8.013,2.39A12.231,12.231,0,0,1,30.2,91.293Zm6.953,24.846a.078.078,0,0,1-.069.025.079.079,0,0,1-.063-.038l-3.84-5.76,1.236-1.3,5.826,3.982Zm5.015-4.765L35.477,106.8v-2.3a13.9,13.9,0,0,0,5.728,1.654q.488.032.972.031a14.3,14.3,0,0,0,6.674-1.636V106.8Zm5.147,4.752a.078.078,0,0,1-.063.038.076.076,0,0,1-.069-.025l-3.09-3.09,5.826-3.982,1.236,1.3Z" transform="translate(0 -68.066)"/></g><g transform="translate(6.856 118.577)"><path class="a" d="M33.68,390.728a1.6,1.6,0,0,0-1.6,1.6V400.5a1.6,1.6,0,1,0,3.206,0v-8.165A1.6,1.6,0,0,0,33.68,390.728Z" transform="translate(-32.077 -390.728)"/></g><g transform="translate(27.291 78.851)"><path class="a" d="M219.193,140.963c-6.063-6.063-18.748-4.9-23.921-4.124a3.291,3.291,0,0,0-2.812,3.279v3.693a1.6,1.6,0,0,0,3.206,0v-3.693a.106.106,0,0,1,.084-.108,50.646,50.646,0,0,1,10.415-.509c5,.333,8.62,1.588,10.762,3.73a1.6,1.6,0,0,0,2.267-2.267Z" transform="translate(-192.46 -136.203)"/></g><g transform="translate(26.1 119.886)"><path class="a" d="M161.987,396.853a1.6,1.6,0,0,0-1.6,1.6v6.856a1.6,1.6,0,1,0,3.206,0v-6.856A1.6,1.6,0,0,0,161.987,396.853Z" transform="translate(-160.384 -396.853)"/></g><g transform="translate(52.671 119.886)"><path class="a" d="M338.409,396.853a1.6,1.6,0,0,0-1.6,1.6v6.856a1.6,1.6,0,1,0,3.206,0v-6.856A1.6,1.6,0,0,0,338.409,396.853Z" transform="translate(-336.806 -396.853)"/></g></g></svg>